G04 EAGLE Gerber RS-274X export*
G75*
%MOMM*%
%FSLAX34Y34*%
%LPD*%
%INSoldermask Top*%
%IPPOS*%
%AMOC8*
5,1,8,0,0,1.08239X$1,22.5*%
G01*
%ADD10C,2.082800*%
%ADD11R,1.703200X0.703200*%
%ADD12R,0.703200X1.703200*%
%ADD13R,1.711200X1.711200*%
%ADD14R,1.511200X1.511200*%


D10*
X254000Y355600D03*
X279400Y355600D03*
X304800Y355600D03*
X393700Y469900D03*
X419100Y469900D03*
X444500Y469900D03*
X304800Y469900D03*
X330200Y469900D03*
X355600Y469900D03*
X393700Y508000D03*
X419100Y508000D03*
X444500Y508000D03*
X304800Y508000D03*
X330200Y508000D03*
X355600Y508000D03*
X393700Y546100D03*
X419100Y546100D03*
X444500Y546100D03*
D11*
X335700Y281300D03*
X335700Y273300D03*
X335700Y265300D03*
X335700Y257300D03*
X335700Y249300D03*
X335700Y241300D03*
X335700Y233300D03*
X335700Y225300D03*
X335700Y217300D03*
X335700Y209300D03*
X335700Y201300D03*
D12*
X353700Y183300D03*
X361700Y183300D03*
X369700Y183300D03*
X377700Y183300D03*
X385700Y183300D03*
X393700Y183300D03*
X401700Y183300D03*
X409700Y183300D03*
X417700Y183300D03*
X425700Y183300D03*
X433700Y183300D03*
D11*
X451700Y201300D03*
X451700Y209300D03*
X451700Y217300D03*
X451700Y225300D03*
X451700Y233300D03*
X451700Y241300D03*
X451700Y249300D03*
X451700Y257300D03*
X451700Y265300D03*
X451700Y273300D03*
X451700Y281300D03*
D12*
X433700Y299300D03*
X425700Y299300D03*
X417700Y299300D03*
X409700Y299300D03*
X401700Y299300D03*
X393700Y299300D03*
X385700Y299300D03*
X377700Y299300D03*
X369700Y299300D03*
X361700Y299300D03*
X353700Y299300D03*
D13*
X366400Y368300D03*
X446400Y368300D03*
D14*
X386400Y368300D03*
X406400Y368300D03*
X426400Y368300D03*
M02*
